<svg version="1.1" viewBox="0.0 0.0 1316.241469816273 1316.241469816273" fill="none" stroke="none" stroke-linecap="square" stroke-miterlimit="10" xmlns:xlink="http://www.w3.org/1999/xlink" xmlns="http://www.w3.org/2000/svg"><clipPath id="p.0"><path d="m0 0l1316.2415 0l0 1316.2415l-1316.2415 0l0 -1316.2415z" clip-rule="nonzero"/></clipPath><g clip-path="url(#p.0)"><path fill="#000000" fill-opacity="0.0" d="m0 0l1316.2415 0l0 1316.2415l-1316.2415 0z" fill-rule="evenodd"/><path fill="#9fc5e8" d="m110.76337 0l443.04022 0l0 0c29.37622 0 57.549316 11.669679 78.32147 32.44184c20.772217 20.77216 32.441895 48.94526 32.441895 78.321526l0 553.8036c0 0.0030517578 -0.0025024414 0.005493164 -0.005554199 0.005493164l-664.5614 -0.005493164l9.539562E-19 0c-0.0030585849 0 -0.0055380575 -0.0025024414 -0.0055380575 -0.005554199l0.0055380575 -553.79803l0 0c0 -61.172916 49.59045 -110.76337 110.76337 -110.76337z" fill-rule="evenodd"/><path fill="#6aa84f" d="m402.33337 664.5749l0 -76.3465l262.2677 76.3465z" fill-rule="evenodd"/><path fill="#ff0000" d="m317.29007 85.45853l0 0c0 -42.74771 34.65387 -77.40158 77.40158 -77.40158l0 0c20.528168 0 40.215546 8.154786 54.73117 22.670395c14.5155945 14.515614 22.67038 34.203007 22.67038 54.731182l0 0c0 42.74771 -34.65384 77.401566 -77.40155 77.401566l0 0c-42.74771 0 -77.40158 -34.653854 -77.40158 -77.401566z" fill-rule="evenodd"/><path fill="#f1c232" d="m501.82178 234.13333l0 0c0 -42.74771 34.65387 -77.40158 77.40155 -77.40158l0 0c20.528198 0 40.215576 8.154785 54.7312 22.670395c14.515625 14.51561 22.67041 34.203003 22.67041 54.731186l0 0c0 42.74771 -34.65387 77.40158 -77.40161 77.40158l0 0c-42.74768 0 -77.40155 -34.65387 -77.40155 -77.40158z" fill-rule="evenodd"/><path fill="#ffffff" d="m0.06886273 295.84152l201.44882 0l0 369.16537l-201.44882 0z" fill-rule="evenodd"/><path fill="#f1c232" d="m0.17445748 505.3816l495.55615 -278.68524l-8.865356 24.4888l14.87738 20.990402l2.6260986 21.86499l26.256378 8.746002l31.508545 21.86502l24.504883 -3.498413l19.254944 -6.1221924l-199.02774 349.57602l-194.81543 0.032104492l0.70932007 -105.062195l-2.1187744 -31.786255l-188.51418 136.90356l-22.057825 -0.26397705z" fill-rule="evenodd"/><path fill="#ff0000" d="m157.11682 214.56194l151.43665 -125.69678l0.8746033 24.371727l9.620605 6.0923615l0 18.279366l18.366577 11.314713l16.617401 19.149384l18.366608 -2.6123352l34.109406 10.444702l25.363403 -11.314713l24.4888 -20.019379l-49.79483 520.1115l-149.6117 -0.08721924l77.499664 -347.9944l-72.40585 -46.367554l-139.94977 -44.705612z" fill-rule="evenodd"/><path fill="#d9d9d9" d="m312.75763 295.78467l-312.75763 -187.68842l0 191.29813z" fill-rule="evenodd"/><path fill="#ffffff" d="m182.41304 311.53534l11.527557 0l0 353.03937l-11.527557 0z" fill-rule="evenodd"/><path fill="#ffffff" d="m201.50641 314.11426l11.527557 0l0 353.03937l-11.527557 0z" fill-rule="evenodd"/><path fill="#d9d9d9" d="m0.06886273 292.209l334.3622 0l0 24.346436l-334.3622 0z" fill-rule="evenodd"/></g></svg>